<svg width="864" height="486" xmlns="http://www.w3.org/2000/svg" xmlns:xlink="http://www.w3.org/1999/xlink" xml:space="preserve" overflow="hidden"><defs><clipPath id="clip0"><rect x="0" y="0" width="864" height="486"/></clipPath></defs><g clip-path="url(#clip0)"><path d="M0 0 864 0 864 486 0 486Z" fill="#FFFFFF"/><path d="M0 0 864 0 864 38.88 0 38.88Z" fill="#B3453F"/><text fill="#FFFFFF" font-family="Aptos,Aptos_MSFontService,sans-serif" font-weight="700" font-size="30" transform="matrix(0.54 0 0 0.54 54.8548 26)">Training</text><text fill="#FFFFFF" font-family="Aptos,Aptos_MSFontService,sans-serif" font-weight="700" font-size="30" transform="matrix(0.54 0 0 0.54 115.745 26)">Course</text><text fill="#FFFFFF" font-family="Aptos,Aptos_MSFontService,sans-serif" font-weight="700" font-size="30" transform="matrix(0.54 0 0 0.54 168.665 26)">:</text><text fill="#FFFFFF" font-family="Aptos,Aptos_MSFontService,sans-serif" font-weight="700" font-size="37" transform="matrix(0.54 0 0 0.54 212.337 26)">INFRARED THERMOGRAPHY FOR INDUSTRIAL MAINTENANCE</text><path d="M307.53 218.43 864.27 218.43 864.27 245.43 307.53 245.43Z" stroke="#83CBEB" stroke-width="0.675" stroke-linejoin="round" stroke-miterlimit="10" fill="#163E64"/><text fill="#FFFFFF" font-family="Aptos,Aptos_MSFontService,sans-serif" font-weight="700" font-size="30" transform="matrix(0.54 0 0 0.54 313.871 237)">TRAINING</text><text fill="#FFFFFF" font-family="Aptos,Aptos_MSFontService,sans-serif" font-weight="700" font-size="30" transform="matrix(0.54 0 0 0.54 390.011 237)">CONTENT</text><text font-family="Aptos,Aptos_MSFontService,sans-serif" font-style="italic" font-weight="400" font-size="30" transform="matrix(0.54 0 0 0.54 35.3345 57)">This training course</text><text font-family="Aptos,Aptos_MSFontService,sans-serif" font-style="italic" font-weight="400" font-size="30" transform="matrix(0.54 0 0 0.54 173.165 57)">adheres</text><text font-family="Aptos,Aptos_MSFontService,sans-serif" font-style="italic" font-weight="400" font-size="30" transform="matrix(0.54 0 0 0.54 233.258 57)">t</text><text font-family="Aptos,Aptos_MSFontService,sans-serif" font-style="italic" font-weight="400" font-size="30" transform="matrix(0.54 0 0 0.54 238.239 57)">o</text><text font-family="Aptos,Aptos_MSFontService,sans-serif" font-style="italic" font-weight="400" font-size="30" transform="matrix(0.54 0 0 0.54 250.389 57)">the ISO </text><text font-family="Aptos,Aptos_MSFontService,sans-serif" font-style="italic" font-weight="400" font-size="30" transform="matrix(0.54 0 0 0.54 304.929 57)">18436</text><text font-family="Aptos,Aptos_MSFontService,sans-serif" font-style="italic" font-weight="400" font-size="30" transform="matrix(0.54 0 0 0.54 347.815 57)">-</text><text font-family="Aptos,Aptos_MSFontService,sans-serif" font-style="italic" font-weight="400" font-size="30" transform="matrix(0.54 0 0 0.54 352.198 57)">7 </text><text font-family="Aptos,Aptos_MSFontService,sans-serif" font-style="italic" font-weight="400" font-size="30" transform="matrix(0.54 0 0 0.54 364.078 57)">standard</text><text font-family="Aptos,Aptos_MSFontService,sans-serif" font-style="italic" font-weight="400" font-size="30" transform="matrix(0.54 0 0 0.54 429.818 57)">and</text><text font-family="Aptos,Aptos_MSFontService,sans-serif" font-style="italic" font-weight="400" font-size="30" transform="matrix(0.54 0 0 0.54 459.743 57)">is expanded comprehensively to encompass applied</text><text font-family="Aptos,Aptos_MSFontService,sans-serif" font-style="italic" font-weight="400" font-size="30" transform="matrix(0.54 0 0 0.54 298.746 76)">knowledge in industrial maintenance</text><text font-family="Aptos,Aptos_MSFontService,sans-serif" font-style="italic" font-weight="400" font-size="30" transform="matrix(0.54 0 0 0.54 558.486 76)">.</text><path d="M568.62 245.7 864 245.7 864 369.36 568.62 369.36Z" fill="#CAEEFB"/><text font-family="Aptos,Aptos_MSFontService,sans-serif" font-weight="700" font-size="27" transform="matrix(0.54 0 0 0.54 575.332 262)">Section</text><text font-family="Aptos,Aptos_MSFontService,sans-serif" font-weight="700" font-size="27" transform="matrix(0.54 0 0 0.54 628.322 262)">II</text><text font-family="Aptos,Aptos_MSFontService,sans-serif" font-weight="700" font-size="27" transform="matrix(0.54 0 0 0.54 636.871 262)">:</text><text font-family="Symbol,Symbol_MSFontService,sans-serif" font-weight="400" font-size="27" transform="matrix(0.54 0 0 0.54 575.332 285)"></text><text font-family="Aptos,Aptos_MSFontService,sans-serif" font-weight="400" font-size="27" transform="matrix(0.54 0 0 0.54 599.632 285)">Thermography</text><text font-family="Symbol,Symbol_MSFontService,sans-serif" font-weight="400" font-size="27" transform="matrix(0.54 0 0 0.54 575.332 309)"></text><text font-family="Aptos,Aptos_MSFontService,sans-serif" font-weight="400" font-size="27" transform="matrix(0.54 0 0 0.54 599.632 309)">The</text><text font-family="Aptos,Aptos_MSFontService,sans-serif" font-weight="400" font-size="27" transform="matrix(0.54 0 0 0.54 635.483 309)">infrared</text><text font-family="Aptos,Aptos_MSFontService,sans-serif" font-weight="400" font-size="27" transform="matrix(0.54 0 0 0.54 697.14 309)">image</text><text font-family="Aptos,Aptos_MSFontService,sans-serif" font-weight="400" font-size="27" transform="matrix(0.54 0 0 0.54 748.408 309)">–</text><text font-family="Aptos,Aptos_MSFontService,sans-serif" font-weight="400" font-size="27" transform="matrix(0.54 0 0 0.54 768.501 309)">interpretation</text><text font-family="Aptos,Aptos_MSFontService,sans-serif" font-weight="400" font-size="27" transform="matrix(0.54 0 0 0.54 854.361 309)">,</text><text font-family="Aptos,Aptos_MSFontService,sans-serif" font-weight="400" font-size="27" transform="matrix(0.54 0 0 0.54 599.632 327)">qualitative</text><text font-family="Aptos,Aptos_MSFontService,sans-serif" font-weight="400" font-size="27" transform="matrix(0.54 0 0 0.54 678.143 327)">and</text><text font-family="Aptos,Aptos_MSFontService,sans-serif" font-weight="400" font-size="27" transform="matrix(0.54 0 0 0.54 715.241 327)">quantitative</text><text font-family="Aptos,Aptos_MSFontService,sans-serif" font-weight="400" font-size="27" transform="matrix(0.54 0 0 0.54 802.64 327)">analysis</text><text font-family="Aptos,Aptos_MSFontService,sans-serif" font-weight="400" font-size="27" transform="matrix(0.54 0 0 0.54 853.4 327)">,</text><text font-family="Aptos,Aptos_MSFontService,sans-serif" font-weight="400" font-size="27" transform="matrix(0.54 0 0 0.54 599.632 344)">analysis</text><text font-family="Aptos,Aptos_MSFontService,sans-serif" font-weight="400" font-size="27" transform="matrix(0.54 0 0 0.54 677.581 344)">principles</text><text font-family="Aptos,Aptos_MSFontService,sans-serif" font-weight="400" font-size="27" transform="matrix(0.54 0 0 0.54 739.141 344)">,</text><text font-family="Aptos,Aptos_MSFontService,sans-serif" font-weight="400" font-size="27" transform="matrix(0.54 0 0 0.54 770.38 344)">measurement</text><text font-family="Aptos,Aptos_MSFontService,sans-serif" font-weight="400" font-size="27" transform="matrix(0.54 0 0 0.54 599.632 361)">compensation</text><path d="M305.64 366.12 864 366.12 864 504.36 305.64 504.36Z" fill="#CAEEFB"/><text font-family="Aptos,Aptos_MSFontService,sans-serif" font-weight="700" font-size="27" transform="matrix(0.54 0 0 0.54 311.979 383)">Section</text><text font-family="Aptos,Aptos_MSFontService,sans-serif" font-weight="700" font-size="27" transform="matrix(0.54 0 0 0.54 364.967 383)">III</text><text font-family="Aptos,Aptos_MSFontService,sans-serif" font-weight="700" font-size="27" transform="matrix(0.54 0 0 0.54 377.792 383)">:</text><text font-family="Symbol,Symbol_MSFontService,sans-serif" font-weight="400" font-size="27" transform="matrix(0.54 0 0 0.54 311.979 406)"></text><text font-family="Aptos,Aptos_MSFontService,sans-serif" font-weight="400" font-size="27" transform="matrix(0.54 0 0 0.54 336.279 406)">Using</text><text font-family="Aptos,Aptos_MSFontService,sans-serif" font-weight="400" font-size="27" transform="matrix(0.54 0 0 0.54 374.403 406)">thermography</text><text font-family="Aptos,Aptos_MSFontService,sans-serif" font-weight="400" font-size="27" transform="matrix(0.54 0 0 0.54 464.201 406)">in</text><text font-family="Aptos,Aptos_MSFontService,sans-serif" font-weight="400" font-size="27" transform="matrix(0.54 0 0 0.54 478.601 406)">industry</text><text font-family="Aptos,Aptos_MSFontService,sans-serif" font-weight="400" font-size="27" transform="matrix(0.54 0 0 0.54 528.308 406)">.</text><text font-family="Symbol,Symbol_MSFontService,sans-serif" font-weight="400" font-size="27" transform="matrix(0.54 0 0 0.54 311.979 430)"></text><text font-family="Aptos,Aptos_MSFontService,sans-serif" font-weight="400" font-size="27" transform="matrix(0.54 0 0 0.54 336.279 430)">Maintenance</text><text font-family="Aptos,Aptos_MSFontService,sans-serif" font-weight="400" font-size="27" transform="matrix(0.54 0 0 0.54 423.723 430)">application</text><text font-family="Aptos,Aptos_MSFontService,sans-serif" font-weight="400" font-size="27" transform="matrix(0.54 0 0 0.54 493.824 430)">:</text><text font-family="Aptos,Aptos_MSFontService,sans-serif" font-weight="400" font-size="27" transform="matrix(0.54 0 0 0.54 504.165 430)">Rotating</text><text font-family="Aptos,Aptos_MSFontService,sans-serif" font-weight="400" font-size="27" transform="matrix(0.54 0 0 0.54 562.248 430)">mechanical</text><text font-family="Aptos,Aptos_MSFontService,sans-serif" font-weight="400" font-size="27" transform="matrix(0.54 0 0 0.54 635.688 430)">,</text><text font-family="Aptos,Aptos_MSFontService,sans-serif" font-weight="400" font-size="27" transform="matrix(0.54 0 0 0.54 645.856 430)">Static</text><text font-family="Aptos,Aptos_MSFontService,sans-serif" font-weight="400" font-size="27" transform="matrix(0.54 0 0 0.54 687.857 430)">mechanical</text><text font-family="Aptos,Aptos_MSFontService,sans-serif" font-weight="400" font-size="27" transform="matrix(0.54 0 0 0.54 767.302 430)">and</text><text font-family="Aptos,Aptos_MSFontService,sans-serif" font-weight="400" font-size="27" transform="matrix(0.54 0 0 0.54 797.224 430)">fluid</text><text font-family="Aptos,Aptos_MSFontService,sans-serif" font-weight="400" font-size="27" transform="matrix(0.54 0 0 0.54 831.195 430)">flow</text><text font-family="Aptos,Aptos_MSFontService,sans-serif" font-weight="400" font-size="27" transform="matrix(0.54 0 0 0.54 336.279 447)">issues</text><text font-family="Aptos,Aptos_MSFontService,sans-serif" font-weight="400" font-size="27" transform="matrix(0.54 0 0 0.54 376.329 447)">;</text><text font-family="Aptos,Aptos_MSFontService,sans-serif" font-weight="400" font-size="27" transform="matrix(0.54 0 0 0.54 383.417 447)">Electrical</text><text font-family="Aptos,Aptos_MSFontService,sans-serif" font-weight="400" font-size="27" transform="matrix(0.54 0 0 0.54 441.944 447)">;</text><text font-family="Aptos,Aptos_MSFontService,sans-serif" font-weight="400" font-size="27" transform="matrix(0.54 0 0 0.54 449.031 447)">MCC</text><text font-family="Aptos,Aptos_MSFontService,sans-serif" font-weight="400" font-size="27" transform="matrix(0.54 0 0 0.54 483.272 447)">and</text><text font-family="Aptos,Aptos_MSFontService,sans-serif" font-weight="400" font-size="27" transform="matrix(0.54 0 0 0.54 509.934 447)">Low</text><text font-family="Aptos,Aptos_MSFontService,sans-serif" font-weight="400" font-size="27" transform="matrix(0.54 0 0 0.54 538.293 447)">Voltage</text><text font-family="Aptos,Aptos_MSFontService,sans-serif" font-weight="400" font-size="27" transform="matrix(0.54 0 0 0.54 587.358 447)">terminations</text><text font-family="Aptos,Aptos_MSFontService,sans-serif" font-weight="400" font-size="27" transform="matrix(0.54 0 0 0.54 669.508 447)">and</text><text font-family="Aptos,Aptos_MSFontService,sans-serif" font-weight="400" font-size="27" transform="matrix(0.54 0 0 0.54 696.173 447)">components</text><text font-family="Aptos,Aptos_MSFontService,sans-serif" font-weight="400" font-size="27" transform="matrix(0.54 0 0 0.54 774.889 447)">.</text><text font-family="Symbol,Symbol_MSFontService,sans-serif" font-weight="400" font-size="27" transform="matrix(0.54 0 0 0.54 311.979 471)"></text><text font-family="Aptos,Aptos_MSFontService,sans-serif" font-weight="400" font-size="27" transform="matrix(0.54 0 0 0.54 336.279 471)">Program</text><text font-family="Aptos,Aptos_MSFontService,sans-serif" font-weight="400" font-size="27" transform="matrix(0.54 0 0 0.54 391.314 471)">design</text><text font-family="Aptos,Aptos_MSFontService,sans-serif" font-weight="400" font-size="27" transform="matrix(0.54 0 0 0.54 432.354 471)">,</text><text font-family="Aptos,Aptos_MSFontService,sans-serif" font-weight="400" font-size="27" transform="matrix(0.54 0 0 0.54 439.464 471)">implementation</text><text font-family="Aptos,Aptos_MSFontService,sans-serif" font-weight="400" font-size="27" transform="matrix(0.54 0 0 0.54 539.364 471)">,</text><text font-family="Aptos,Aptos_MSFontService,sans-serif" font-weight="400" font-size="27" transform="matrix(0.54 0 0 0.54 545.594 471)">and</text><text font-family="Aptos,Aptos_MSFontService,sans-serif" font-weight="400" font-size="27" transform="matrix(0.54 0 0 0.54 572.254 471)">management</text><text font-family="Aptos,Aptos_MSFontService,sans-serif" font-weight="400" font-size="27" transform="matrix(0.54 0 0 0.54 654.615 471)">.</text><path d="M-3.51 190.35 294.03 190.35 294.03 236.25-3.51 236.25Z" stroke="#83CBEB" stroke-width="0.675" stroke-linejoin="round" stroke-miterlimit="10" fill="#DCEAF7"/><text font-family="Aptos,Aptos_MSFontService,sans-serif" font-weight="700" font-size="30" transform="matrix(0.54 0 0 0.54 2.9211 208)">Duration</text><text font-family="Aptos,Aptos_MSFontService,sans-serif" font-weight="700" font-size="30" transform="matrix(0.54 0 0 0.54 66.9109 208)">:</text><text font-family="Aptos,Aptos_MSFontService,sans-serif" font-weight="400" font-size="30" transform="matrix(0.54 0 0 0.54 81.5362 208)">5 </text><text font-family="Aptos,Aptos_MSFontService,sans-serif" font-weight="400" font-size="30" transform="matrix(0.54 0 0 0.54 93.4162 208)">days in</text><text font-family="Aptos,Aptos_MSFontService,sans-serif" font-weight="400" font-size="30" transform="matrix(0.54 0 0 0.54 145.548 208)">cl</text><text font-family="Aptos,Aptos_MSFontService,sans-serif" font-weight="400" font-size="30" transform="matrix(0.54 0 0 0.54 158.261 208)">ass</text><path d="M2.9211 210.321 67.1809 210.321 67.1809 211.401 2.9211 211.401Z" fill-rule="evenodd"/><text font-family="Aptos,Aptos_MSFontService,sans-serif" font-weight="400" font-size="30" transform="matrix(0.54 0 0 0.54 2.9211 228)">O</text><text font-family="Aptos,Aptos_MSFontService,sans-serif" font-weight="400" font-size="30" transform="matrix(0.54 0 0 0.54 14.7336 228)">nsite mento</text><text font-family="Aptos,Aptos_MSFontService,sans-serif" font-weight="400" font-size="30" transform="matrix(0.54 0 0 0.54 97.7092 228)">ring available upon request</text><path d="M-3.51 237.33 295.65 237.33 295.65 302.67-3.51 302.67Z" stroke="#83CBEB" stroke-width="0.675" stroke-linejoin="round" stroke-miterlimit="10" fill="#104862"/><text fill="#FFFFFF" font-family="Aptos,Aptos_MSFontService,sans-serif" font-weight="700" font-size="30" transform="matrix(0.54 0 0 0.54 2.49959 255)">Tutor</text><text fill="#FFFFFF" font-family="Aptos,Aptos_MSFontService,sans-serif" font-weight="700" font-size="30" transform="matrix(0.54 0 0 0.54 40.5471 255)">:</text><text fill="#FFFFFF" font-family="Aptos,Aptos_MSFontService,sans-serif" font-weight="700" font-size="30" transform="matrix(0.54 0 0 0.54 58.4345 255)">-</text><text fill="#FFFFFF" font-family="Aptos,Aptos_MSFontService,sans-serif" font-weight="400" font-size="30" transform="matrix(0.54 0 0 0.54 67.2095 255)">Over</text><text fill="#FFFFFF" font-family="Aptos,Aptos_MSFontService,sans-serif" font-weight="400" font-size="30" transform="matrix(0.54 0 0 0.54 103.389 255)">30</text><text fill="#FFFFFF" font-family="Aptos,Aptos_MSFontService,sans-serif" font-weight="400" font-size="30" transform="matrix(0.54 0 0 0.54 123.977 255)">years of</text><text fill="#FFFFFF" font-family="Aptos,Aptos_MSFontService,sans-serif" font-weight="400" font-size="30" transform="matrix(0.54 0 0 0.54 184.975 255)">teaching</text><path d="M2.49959 257.011 40.2996 257.011 40.2996 258.091 2.49959 258.091Z" fill="#FFFFFF" fill-rule="evenodd"/><text fill="#FFFFFF" font-family="Aptos,Aptos_MSFontService,sans-serif" font-weight="400" font-size="30" transform="matrix(0.54 0 0 0.54 34.8996 275)">experience</text><text fill="#FFFFFF" font-family="Aptos,Aptos_MSFontService,sans-serif" font-weight="400" font-size="30" transform="matrix(0.54 0 0 0.54 115.094 275)">IRT at</text><text fill="#FFFFFF" font-family="Aptos,Aptos_MSFontService,sans-serif" font-weight="400" font-size="30" transform="matrix(0.54 0 0 0.54 156.827 275)">ITC</text><text fill="#FFFFFF" font-family="Aptos,Aptos_MSFontService,sans-serif" font-weight="400" font-size="30" transform="matrix(0.54 0 0 0.54 182.823 275)">.</text><text fill="#FFFFFF" font-family="Aptos,Aptos_MSFontService,sans-serif" font-weight="400" font-size="30" transform="matrix(0.54 0 0 0.54 2.49959 294)">-</text><text fill="#FFFFFF" font-family="Aptos,Aptos_MSFontService,sans-serif" font-weight="400" font-size="30" transform="matrix(0.54 0 0 0.54 11.2746 294)">40</text><text fill="#FFFFFF" font-family="Aptos,Aptos_MSFontService,sans-serif" font-weight="400" font-size="30" transform="matrix(0.54 0 0 0.54 31.8621 294)">years</text><text fill="#FFFFFF" font-family="Aptos,Aptos_MSFontService,sans-serif" font-weight="400" font-size="30" transform="matrix(0.54 0 0 0.54 72.6095 294)">of global onsite</text><text fill="#FFFFFF" font-family="Aptos,Aptos_MSFontService,sans-serif" font-weight="400" font-size="30" transform="matrix(0.54 0 0 0.54 182.216 294)">practicing</text><text fill="#FFFFFF" font-family="Aptos,Aptos_MSFontService,sans-serif" font-weight="400" font-size="30" transform="matrix(0.54 0 0 0.54 251.71 294)">.</text><path d="M-1.89 79.11 295.65 79.11 295.65 106.11-1.89 106.11Z" stroke="#FFFFFF" stroke-width="0.675" stroke-linejoin="round" stroke-miterlimit="10" fill="#DCEAF7"/><text font-family="Aptos,Aptos_MSFontService,sans-serif" font-weight="700" font-size="30" transform="matrix(0.54 0 0 0.54 4.2604 98)">Caterogy</text><text font-family="Aptos,Aptos_MSFontService,sans-serif" font-weight="700" font-size="30" transform="matrix(0.54 0 0 0.54 70.7659 98)">:</text><text font-family="Aptos,Aptos_MSFontService,sans-serif" font-weight="400" font-size="30" transform="matrix(0.54 0 0 0.54 121.279 98)">Level</text><text font-family="Aptos,Aptos_MSFontService,sans-serif" font-weight="400" font-size="30" transform="matrix(0.54 0 0 0.54 161.081 98)">1</text><text font-family="Aptos,Aptos_MSFontService,sans-serif" font-weight="400" font-size="30" transform="matrix(0.54 0 0 0.54 169.744 98)">+</text><path d="M4.2604 99.3767 70.6806 99.3767 70.6806 100.457 4.2604 100.457Z" fill-rule="evenodd"/><path d="M305.64 246.24 572.4 246.24 572.4 367.2 305.64 367.2Z" fill="#CAEEFB"/><text font-family="Aptos,Aptos_MSFontService,sans-serif" font-weight="700" font-size="27" transform="matrix(0.54 0 0 0.54 311.98 263)">Section</text><text font-family="Aptos,Aptos_MSFontService,sans-serif" font-weight="700" font-size="27" transform="matrix(0.54 0 0 0.54 364.967 263)">I</text><text font-family="Aptos,Aptos_MSFontService,sans-serif" font-weight="700" font-size="27" transform="matrix(0.54 0 0 0.54 369.242 263)">:</text><text font-family="Symbol,Symbol_MSFontService,sans-serif" font-weight="400" font-size="27" transform="matrix(0.54 0 0 0.54 311.98 286)"></text><text font-family="Aptos,Aptos_MSFontService,sans-serif" font-weight="400" font-size="27" transform="matrix(0.54 0 0 0.54 336.28 286)">Thermal</text><text font-family="Aptos,Aptos_MSFontService,sans-serif" font-weight="400" font-size="27" transform="matrix(0.54 0 0 0.54 390.054 286)">Science</text><text font-family="Symbol,Symbol_MSFontService,sans-serif" font-weight="400" font-size="27" transform="matrix(0.54 0 0 0.54 311.98 310)"></text><text font-family="Aptos,Aptos_MSFontService,sans-serif" font-weight="400" font-size="27" transform="matrix(0.54 0 0 0.54 336.28 310)">Heat</text><text font-family="Aptos,Aptos_MSFontService,sans-serif" font-weight="400" font-size="27" transform="matrix(0.54 0 0 0.54 369.116 310)">transfer</text><text font-family="Symbol,Symbol_MSFontService,sans-serif" font-weight="400" font-size="27" transform="matrix(0.54 0 0 0.54 311.98 334)"></text><text font-family="Aptos,Aptos_MSFontService,sans-serif" font-weight="400" font-size="27" transform="matrix(0.54 0 0 0.54 336.28 334)">Radiation</text><text font-family="Aptos,Aptos_MSFontService,sans-serif" font-weight="400" font-size="27" transform="matrix(0.54 0 0 0.54 398.901 334)">fundamentals</text><text font-family="Symbol,Symbol_MSFontService,sans-serif" font-weight="400" font-size="27" transform="matrix(0.54 0 0 0.54 311.98 359)"></text><text font-family="Aptos,Aptos_MSFontService,sans-serif" font-weight="400" font-size="27" transform="matrix(0.54 0 0 0.54 336.28 359)">Factors</text><text font-family="Aptos,Aptos_MSFontService,sans-serif" font-weight="400" font-size="27" transform="matrix(0.54 0 0 0.54 385.955 359)">influencing</text><text font-family="Aptos,Aptos_MSFontService,sans-serif" font-weight="400" font-size="27" transform="matrix(0.54 0 0 0.54 458.067 359)">emissivity</text><text font-family="Aptos,Aptos_MSFontService,sans-serif" font-weight="400" font-size="27" transform="matrix(0.54 0 0 0.54 518.894 359)">.</text><path d="M-4.59 417.69 295.65 417.69 295.65 486.27-4.59 486.27Z" stroke="#83CBEB" stroke-width="0.675" stroke-linejoin="round" stroke-miterlimit="10" fill="#DCEAF7"/><text font-family="Aptos,Aptos_MSFontService,sans-serif" font-weight="700" font-size="30" transform="matrix(0.54 0 0 0.54 1.58209 436)">Registration</text><text font-family="Aptos,Aptos_MSFontService,sans-serif" font-weight="700" font-size="30" transform="matrix(0.54 0 0 0.54 90.5245 436)">:</text><path d="M1.58209 437.688 46.1321 437.688 90.6822 437.688 90.6822 438.768 46.1321 438.768 1.58209 438.768Z" fill-rule="evenodd"/><text font-family="Aptos,Aptos_MSFontService,sans-serif" font-weight="400" font-size="30" transform="matrix(0.54 0 0 0.54 33.9821 457)">Email</text><text font-family="Aptos,Aptos_MSFontService,sans-serif" font-weight="400" font-size="30" transform="matrix(0.54 0 0 0.54 73.9421 457)">:</text><text font-family="Aptos,Aptos_MSFontService,sans-serif" font-weight="400" font-size="30" transform="matrix(0.54 0 0 0.54 81.3445 457)">setechs</text><text font-family="Aptos,Aptos_MSFontService,sans-serif" font-weight="400" font-size="30" transform="matrix(0.54 0 0 0.54 138.045 457)">@</text><text font-family="Aptos,Aptos_MSFontService,sans-serif" font-weight="400" font-size="30" transform="matrix(0.54 0 0 0.54 152.625 457)">setechs</text><text font-family="Aptos,Aptos_MSFontService,sans-serif" font-weight="400" font-size="30" transform="matrix(0.54 0 0 0.54 209.325 457)">.</text><text font-family="Aptos,Aptos_MSFontService,sans-serif" font-weight="400" font-size="30" transform="matrix(0.54 0 0 0.54 214.185 457)">asia</text><path d="M81.5022 458.208 134.422 458.208 187.342 458.208 240.262 458.208 240.262 459.288 187.342 459.288 134.422 459.288 81.5022 459.288Z" fill-rule="evenodd"/><text font-family="Aptos,Aptos_MSFontService,sans-serif" font-weight="400" font-size="30" transform="matrix(0.54 0 0 0.54 33.9821 478)">Tel</text><text font-family="Aptos,Aptos_MSFontService,sans-serif" font-weight="400" font-size="30" transform="matrix(0.54 0 0 0.54 53.4221 478)">:</text><text font-family="Aptos,Aptos_MSFontService,sans-serif" font-weight="400" font-size="30" transform="matrix(0.54 0 0 0.54 67.561 478)">0813029386</text><path d="M306.99 85.59 863.19 85.59 863.19 216.81 306.99 216.81Z" stroke="#FFFFFF" stroke-width="0.675" stroke-linejoin="round" stroke-miterlimit="10" fill="#DCEAF7"/><text font-family="Aptos,Aptos_MSFontService,sans-serif" font-style="italic" font-weight="700" font-size="30" transform="matrix(0.54 0 0 0.54 316.253 104)">Benefit</text><text font-family="Aptos,Aptos_MSFontService,sans-serif" font-style="italic" font-weight="700" font-size="30" transform="matrix(0.54 0 0 0.54 372.39 104)">of</text><text font-family="Aptos,Aptos_MSFontService,sans-serif" font-style="italic" font-weight="700" font-size="30" transform="matrix(0.54 0 0 0.54 390.278 104)">course</text><text font-family="Wingdings,Wingdings_MSFontService,sans-serif" font-weight="400" font-size="27" transform="matrix(0.54 0 0 0.54 312.99 122)"></text><text font-family="Aptos,Aptos_MSFontService,sans-serif" font-weight="400" font-size="27" transform="matrix(0.54 0 0 0.54 333.24 122)">Learn</text><text font-family="Aptos,Aptos_MSFontService,sans-serif" font-weight="400" font-size="27" transform="matrix(0.54 0 0 0.54 376.625 122)">to</text><text font-family="Aptos,Aptos_MSFontService,sans-serif" font-weight="400" font-size="27" transform="matrix(0.54 0 0 0.54 397.289 122)">correctly</text><text font-family="Aptos,Aptos_MSFontService,sans-serif" font-weight="400" font-size="27" transform="matrix(0.54 0 0 0.54 460.352 122)">c</text><text font-family="Aptos,Aptos_MSFontService,sans-serif" font-weight="400" font-size="27" transform="matrix(0.54 0 0 0.54 467.889 122)">hoose</text><text font-family="Aptos,Aptos_MSFontService,sans-serif" font-weight="400" font-size="27" transform="matrix(0.54 0 0 0.54 514.501 122)">and</text><text font-family="Aptos,Aptos_MSFontService,sans-serif" font-weight="400" font-size="27" transform="matrix(0.54 0 0 0.54 546.372 122)">maximize</text><text font-family="Aptos,Aptos_MSFontService,sans-serif" font-weight="400" font-size="27" transform="matrix(0.54 0 0 0.54 613.688 122)">the</text><text font-family="Aptos,Aptos_MSFontService,sans-serif" font-weight="400" font-size="27" transform="matrix(0.54 0 0 0.54 641.957 122)">benefits</text><text font-family="Aptos,Aptos_MSFontService,sans-serif" font-weight="400" font-size="27" transform="matrix(0.54 0 0 0.54 700.655 122)">of</text><text font-family="Aptos,Aptos_MSFontService,sans-serif" font-weight="400" font-size="27" transform="matrix(0.54 0 0 0.54 721.165 122)">infrared</text><text font-family="Aptos,Aptos_MSFontService,sans-serif" font-weight="400" font-size="27" transform="matrix(0.54 0 0 0.54 777.492 122)">cameras</text><text font-family="Aptos,Aptos_MSFontService,sans-serif" font-weight="400" font-size="27" transform="matrix(0.54 0 0 0.54 839.565 122)">fo</text><text font-family="Aptos,Aptos_MSFontService,sans-serif" font-weight="400" font-size="27" transform="matrix(0.54 0 0 0.54 851.753 122)">r</text><text font-family="Aptos,Aptos_MSFontService,sans-serif" font-weight="400" font-size="27" transform="matrix(0.54 0 0 0.54 333.24 139)">practical</text><text font-family="Aptos,Aptos_MSFontService,sans-serif" font-weight="400" font-size="27" transform="matrix(0.54 0 0 0.54 390.777 139)">applications</text><text font-family="Aptos,Aptos_MSFontService,sans-serif" font-weight="400" font-size="27" transform="matrix(0.54 0 0 0.54 467.656 139)">.</text><text font-family="Wingdings,Wingdings_MSFontService,sans-serif" font-weight="400" font-size="27" transform="matrix(0.54 0 0 0.54 312.99 156)"></text><text font-family="Aptos,Aptos_MSFontService,sans-serif" font-weight="400" font-size="27" transform="matrix(0.54 0 0 0.54 337.29 156)">Gain</text><text font-family="Aptos,Aptos_MSFontService,sans-serif" font-weight="400" font-size="27" transform="matrix(0.54 0 0 0.54 376.98 156)">expertise</text><text font-family="Aptos,Aptos_MSFontService,sans-serif" font-weight="400" font-size="27" transform="matrix(0.54 0 0 0.54 444.129 156)">in</text><text font-family="Aptos,Aptos_MSFontService,sans-serif" font-weight="400" font-size="27" transform="matrix(0.54 0 0 0.54 465.932 156)">d</text><text font-family="Aptos,Aptos_MSFontService,sans-serif" font-weight="400" font-size="27" transform="matrix(0.54 0 0 0.54 474.032 156)">esign</text><text font-family="Aptos,Aptos_MSFontService,sans-serif" font-weight="400" font-size="27" transform="matrix(0.54 0 0 0.54 506.995 156)">ing</text><text font-family="Aptos,Aptos_MSFontService,sans-serif" font-weight="400" font-size="27" transform="matrix(0.54 0 0 0.54 535.772 156)">processes</text><text font-family="Aptos,Aptos_MSFontService,sans-serif" font-weight="400" font-size="27" transform="matrix(0.54 0 0 0.54 600.572 156)">,</text><text font-family="Aptos,Aptos_MSFontService,sans-serif" font-weight="400" font-size="27" transform="matrix(0.54 0 0 0.54 614.326 156)">perform</text><text font-family="Aptos,Aptos_MSFontService,sans-serif" font-weight="400" font-size="27" transform="matrix(0.54 0 0 0.54 664.103 156)">ing</text><text font-family="Aptos,Aptos_MSFontService,sans-serif" font-weight="400" font-size="27" transform="matrix(0.54 0 0 0.54 692.874 156)">analytical</text><text font-family="Aptos,Aptos_MSFontService,sans-serif" font-weight="400" font-size="27" transform="matrix(0.54 0 0 0.54 763.641 156)">analyses</text><text font-family="Aptos,Aptos_MSFontService,sans-serif" font-weight="400" font-size="27" transform="matrix(0.54 0 0 0.54 818.37 156)">,</text><text font-family="Aptos,Aptos_MSFontService,sans-serif" font-weight="400" font-size="27" transform="matrix(0.54 0 0 0.54 832.853 156)">and</text><text font-family="Aptos,Aptos_MSFontService,sans-serif" font-weight="400" font-size="27" transform="matrix(0.54 0 0 0.54 337.29 173)">manag</text><text font-family="Aptos,Aptos_MSFontService,sans-serif" font-weight="400" font-size="27" transform="matrix(0.54 0 0 0.54 379.815 173)">ing</text><text font-family="Aptos,Aptos_MSFontService,sans-serif" font-weight="400" font-size="27" transform="matrix(0.54 0 0 0.54 401.191 173)">programs</text><text font-family="Aptos,Aptos_MSFontService,sans-serif" font-weight="400" font-size="27" transform="matrix(0.54 0 0 0.54 463.115 173)">effectively</text><text font-family="Aptos,Aptos_MSFontService,sans-serif" font-weight="400" font-size="27" transform="matrix(0.54 0 0 0.54 525.53 173)">.</text><text font-family="Wingdings,Wingdings_MSFontService,sans-serif" font-weight="400" font-size="27" transform="matrix(0.54 0 0 0.54 312.99 191)"></text><text font-family="Aptos,Aptos_MSFontService,sans-serif" font-weight="400" font-size="27" transform="matrix(0.54 0 0 0.54 337.29 191)">Acquire</text><text font-family="Aptos,Aptos_MSFontService,sans-serif" font-weight="400" font-size="27" transform="matrix(0.54 0 0 0.54 390.391 191)">skills</text><text font-family="Aptos,Aptos_MSFontService,sans-serif" font-weight="400" font-size="27" transform="matrix(0.54 0 0 0.54 427.489 191)">to</text><text font-family="Aptos,Aptos_MSFontService,sans-serif" font-weight="400" font-size="27" transform="matrix(0.54 0 0 0.54 445.277 191)">m</text><text font-family="Aptos,Aptos_MSFontService,sans-serif" font-weight="400" font-size="27" transform="matrix(0.54 0 0 0.54 457.54 191)">onitor</text><text font-family="Aptos,Aptos_MSFontService,sans-serif" font-weight="400" font-size="27" transform="matrix(0.54 0 0 0.54 499.628 191)">and</text><text font-family="Aptos,Aptos_MSFontService,sans-serif" font-weight="400" font-size="27" transform="matrix(0.54 0 0 0.54 528.626 191)">analyze</text><text font-family="Aptos,Aptos_MSFontService,sans-serif" font-weight="400" font-size="27" transform="matrix(0.54 0 0 0.54 581.04 191)">the</text><text font-family="Aptos,Aptos_MSFontService,sans-serif" font-weight="400" font-size="27" transform="matrix(0.54 0 0 0.54 606.442 191)">process</text><text font-family="Aptos,Aptos_MSFontService,sans-serif" font-weight="400" font-size="27" transform="matrix(0.54 0 0 0.54 656.192 191)">es</text><text font-family="Aptos,Aptos_MSFontService,sans-serif" font-weight="400" font-size="27" transform="matrix(0.54 0 0 0.54 675.972 191)">while</text><text font-family="Aptos,Aptos_MSFontService,sans-serif" font-weight="400" font-size="27" transform="matrix(0.54 0 0 0.54 714.312 191)">creat</text><text font-family="Aptos,Aptos_MSFontService,sans-serif" font-weight="400" font-size="27" transform="matrix(0.54 0 0 0.54 746.161 191)">ing</text><text font-family="Aptos,Aptos_MSFontService,sans-serif" font-weight="400" font-size="27" transform="matrix(0.54 0 0 0.54 769.878 191)">insightful</text><text font-family="Aptos,Aptos_MSFontService,sans-serif" font-weight="400" font-size="27" transform="matrix(0.54 0 0 0.54 832.853 191)">and</text><text font-family="Aptos,Aptos_MSFontService,sans-serif" font-weight="400" font-size="27" transform="matrix(0.54 0 0 0.54 337.29 208)">actionable</text><text font-family="Aptos,Aptos_MSFontService,sans-serif" font-weight="400" font-size="27" transform="matrix(0.54 0 0 0.54 406.478 208)">reports</text><text font-family="Aptos,Aptos_MSFontService,sans-serif" font-weight="400" font-size="27" transform="matrix(0.54 0 0 0.54 450.911 208)">.</text><path d="M-2.16 106.92 295.38 106.92 295.38 192.24-2.16 192.24Z" fill="#104862"/><text fill="#FFFFFF" font-family="Aptos,Aptos_MSFontService,sans-serif" font-weight="700" font-size="30" transform="matrix(0.54 0 0 0.54 7.52285 125)">Target audience</text><text fill="#FFFFFF" font-family="Aptos,Aptos_MSFontService,sans-serif" font-weight="400" font-size="30" transform="matrix(0.54 0 0 0.54 123.686 125)">: </text><text fill="#FFFFFF" font-family="Aptos,Aptos_MSFontService,sans-serif" font-weight="400" font-size="30" transform="matrix(0.54 0 0 0.54 131.786 125)">Manager</text><text fill="#FFFFFF" font-family="Aptos,Aptos_MSFontService,sans-serif" font-weight="400" font-size="30" transform="matrix(0.54 0 0 0.54 193.346 125)">, </text><text fill="#FFFFFF" font-family="Aptos,Aptos_MSFontService,sans-serif" font-weight="400" font-size="30" transform="matrix(0.54 0 0 0.54 201.446 125)">Inspector</text><text fill="#FFFFFF" font-family="Aptos,Aptos_MSFontService,sans-serif" font-weight="400" font-size="30" transform="matrix(0.54 0 0 0.54 269.486 125)">,</text><path d="M7.50033 125.95 65.5506 125.95 123.601 125.95 123.601 126.49 65.5506 126.49 7.50033 126.49Z" fill="#FFFFFF" fill-rule="evenodd"/><text fill="#FFFFFF" font-family="Aptos,Aptos_MSFontService,sans-serif" font-weight="400" font-size="30" transform="matrix(0.54 0 0 0.54 4.26033 145)">Operator</text><text fill="#FFFFFF" font-family="Aptos,Aptos_MSFontService,sans-serif" font-weight="400" font-size="30" transform="matrix(0.54 0 0 0.54 67.4403 145)">, </text><text fill="#FFFFFF" font-family="Aptos,Aptos_MSFontService,sans-serif" font-weight="400" font-size="30" transform="matrix(0.54 0 0 0.54 75.5403 145)">Maintenance Staff of</text><text fill="#FFFFFF" font-family="Aptos,Aptos_MSFontService,sans-serif" font-weight="400" font-size="30" transform="matrix(0.54 0 0 0.54 220.926 145)">plants</text><text fill="#FFFFFF" font-family="Aptos,Aptos_MSFontService,sans-serif" font-weight="400" font-size="30" transform="matrix(0.54 0 0 0.54 264.63 145)">.</text><text fill="#FFFFFF" font-family="Aptos,Aptos_MSFontService,sans-serif" font-weight="400" font-size="30" transform="matrix(0.54 0 0 0.54 4.26033 164)">ITR</text><text fill="#FFFFFF" font-family="Aptos,Aptos_MSFontService,sans-serif" font-weight="400" font-size="30" transform="matrix(0.54 0 0 0.54 29.2353 164)">beginner</text><text fill="#FFFFFF" font-family="Aptos,Aptos_MSFontService,sans-serif" font-weight="400" font-size="30" transform="matrix(0.54 0 0 0.54 90.1654 164)">s</text><text fill="#FFFFFF" font-family="Aptos,Aptos_MSFontService,sans-serif" font-weight="400" font-size="30" transform="matrix(0.54 0 0 0.54 97.8199 164)">,</text><text fill="#FFFFFF" font-family="Aptos,Aptos_MSFontService,sans-serif" font-weight="400" font-size="30" transform="matrix(0.54 0 0 0.54 105.695 164)">Level </text><text fill="#FFFFFF" font-family="Aptos,Aptos_MSFontService,sans-serif" font-weight="400" font-size="30" transform="matrix(0.54 0 0 0.54 146.195 164)">1</text><text fill="#FFFFFF" font-family="Aptos,Aptos_MSFontService,sans-serif" font-weight="400" font-size="30" transform="matrix(0.54 0 0 0.54 154.835 164)">, </text><text fill="#FFFFFF" font-family="Aptos,Aptos_MSFontService,sans-serif" font-weight="400" font-size="30" transform="matrix(0.54 0 0 0.54 162.935 164)">Level </text><text fill="#FFFFFF" font-family="Aptos,Aptos_MSFontService,sans-serif" font-weight="400" font-size="30" transform="matrix(0.54 0 0 0.54 203.435 164)">2</text><text fill="#FFFFFF" font-family="Aptos,Aptos_MSFontService,sans-serif" font-weight="400" font-size="30" transform="matrix(0.54 0 0 0.54 4.26033 184)">Professionals</text><path d="M-4.59 304.83 294.57 304.83 294.57 352.89-4.59 352.89Z" stroke="#FFFFFF" stroke-width="0.675" stroke-linejoin="round" stroke-miterlimit="10" fill="#DCEAF7"/><text font-family="Aptos,Aptos_MSFontService,sans-serif" font-weight="700" font-size="30" transform="matrix(0.54 0 0 0.54 4.84452 323)">Language</text><text font-family="Aptos,Aptos_MSFontService,sans-serif" font-weight="700" font-size="30" transform="matrix(0.54 0 0 0.54 75.4628 323)">:</text><text font-family="Aptos,Aptos_MSFontService,sans-serif" font-weight="400" font-size="30" transform="matrix(0.54 0 0 0.54 114.631 323)">English</text><text font-family="Aptos,Aptos_MSFontService,sans-serif" font-weight="400" font-size="30" transform="matrix(0.54 0 0 0.54 199.47 323)">(</text><text font-family="Aptos,Aptos_MSFontService,sans-serif" font-weight="400" font-size="30" transform="matrix(0.54 0 0 0.54 204.33 323)">Vietnamese</text><path d="M1.58202 325.258 38.572 325.258 75.5622 325.258 75.5622 326.338 38.572 326.338 1.58202 326.338Z" fill-rule="evenodd"/><text font-family="Aptos,Aptos_MSFontService,sans-serif" font-weight="400" font-size="30" transform="matrix(0.54 0 0 0.54 33.982 344)">t</text><text font-family="Aptos,Aptos_MSFontService,sans-serif" font-weight="400" font-size="30" transform="matrix(0.54 0 0 0.54 39.2695 344)">ranslation</text><text font-family="Aptos,Aptos_MSFontService,sans-serif" font-weight="400" font-size="30" transform="matrix(0.54 0 0 0.54 112.444 344)">support</text><text font-family="Aptos,Aptos_MSFontService,sans-serif" font-weight="400" font-size="30" transform="matrix(0.54 0 0 0.54 170.381 344)">provided</text><text font-family="Aptos,Aptos_MSFontService,sans-serif" font-weight="400" font-size="30" transform="matrix(0.54 0 0 0.54 231.316 344)">)</text><path d="M-4.59 350.19 295.65 350.19 295.65 422.55-4.59 422.55Z" stroke="#FFFFFF" stroke-width="0.675" stroke-linejoin="round" stroke-miterlimit="10" fill="#104862"/><text fill="#FFFFFF" font-family="Aptos,Aptos_MSFontService,sans-serif" font-weight="700" font-size="30" transform="matrix(0.54 0 0 0.54 1.58202 369)">Training</text><text fill="#FFFFFF" font-family="Aptos,Aptos_MSFontService,sans-serif" font-weight="700" font-size="30" transform="matrix(0.54 0 0 0.54 62.4715 369)">Material</text><text fill="#FFFFFF" font-family="Aptos,Aptos_MSFontService,sans-serif" font-weight="700" font-size="27" transform="matrix(0.54 0 0 0.54 123.262 369)">:</text><text fill="#FFFFFF" font-family="Aptos,Aptos_MSFontService,sans-serif" font-weight="700" font-size="27" transform="matrix(0.54 0 0 0.54 133.387 369)">-</text><text fill="#FFFFFF" font-family="Aptos,Aptos_MSFontService,sans-serif" font-weight="400" font-size="27" transform="matrix(0.54 0 0 0.54 141.262 369)">Exclusice</text><text fill="#FFFFFF" font-family="Aptos,Aptos_MSFontService,sans-serif" font-weight="400" font-size="30" transform="matrix(0.54 0 0 0.54 203.24 369)">IRT</text><text fill="#FFFFFF" font-family="Aptos,Aptos_MSFontService,sans-serif" font-weight="400" font-size="30" transform="matrix(0.54 0 0 0.54 227.905 369)">books</text><path d="M1.58202 370.529 62.3322 370.529 123.082 370.529 123.082 371.609 62.3322 371.609 1.58202 371.609Z" fill="#FFFFFF" fill-rule="evenodd"/><text fill="#FFFFFF" font-family="Aptos,Aptos_MSFontService,sans-serif" font-weight="400" font-size="30" transform="matrix(0.54 0 0 0.54 1.58202 394)">-</text><text fill="#FFFFFF" font-family="Aptos,Aptos_MSFontService,sans-serif" font-weight="400" font-size="30" transform="matrix(0.54 0 0 0.54 15.973 394)">Extensive</text><text fill="#FFFFFF" font-family="Aptos,Aptos_MSFontService,sans-serif" font-weight="400" font-size="30" transform="matrix(0.54 0 0 0.54 91.1007 394)">real</text><text fill="#FFFFFF" font-family="Aptos,Aptos_MSFontService,sans-serif" font-weight="400" font-size="30" transform="matrix(0.54 0 0 0.54 117.655 394)">-</text><text fill="#FFFFFF" font-family="Aptos,Aptos_MSFontService,sans-serif" font-weight="400" font-size="30" transform="matrix(0.54 0 0 0.54 123.168 394)">life</text><text fill="#FFFFFF" font-family="Aptos,Aptos_MSFontService,sans-serif" font-weight="400" font-size="30" transform="matrix(0.54 0 0 0.54 153.214 394)">case</text><text fill="#FFFFFF" font-family="Aptos,Aptos_MSFontService,sans-serif" font-weight="400" font-size="30" transform="matrix(0.54 0 0 0.54 195.636 394)">studies</text><text fill="#FFFFFF" font-family="Aptos,Aptos_MSFontService,sans-serif" font-weight="400" font-size="30" transform="matrix(0.54 0 0 0.54 255.94 394)">from</text><text fill="#FFFFFF" font-family="Aptos,Aptos_MSFontService,sans-serif" font-weight="400" font-size="30" transform="matrix(0.54 0 0 0.54 33.982 414)">t</text><text fill="#FFFFFF" font-family="Aptos,Aptos_MSFontService,sans-serif" font-weight="400" font-size="30" transform="matrix(0.54 0 0 0.54 39.2695 414)">utor</text><text fill="#FFFFFF" font-family="Aptos,Aptos_MSFontService,sans-serif" font-weight="400" font-size="30" transform="matrix(0.54 0 0 0.54 68.4295 414)">’</text><text fill="#FFFFFF" font-family="Aptos,Aptos_MSFontService,sans-serif" font-weight="400" font-size="30" transform="matrix(0.54 0 0 0.54 72.7495 414)">s</text><text fill="#FFFFFF" font-family="Aptos,Aptos_MSFontService,sans-serif" font-weight="400" font-size="30" transform="matrix(0.54 0 0 0.54 82.5147 414)">personal</text><text fill="#FFFFFF" font-family="Aptos,Aptos_MSFontService,sans-serif" font-weight="400" font-size="30" transform="matrix(0.54 0 0 0.54 147.157 414)">experience</text></g></svg>